<svg xmlns="http://www.w3.org/2000/svg" xmlns:xlink="http://www.w3.org/1999/xlink" width="500" zoomAndPan="magnify" viewBox="0 0 375 374.999991" height="500" preserveAspectRatio="xMidYMid meet" version="1.0"><defs><g/><clipPath id="id1"><path d="M 145.875 148 L 229.125 148 L 229.125 297.792969 L 145.875 297.792969 Z M 145.875 148 " clip-rule="nonzero"/></clipPath></defs><rect x="-37.5" width="450" fill="#ffffff" y="-37.499999" height="449.999989" fill-opacity="1"/><rect x="-37.5" width="450" fill="#ffffff" y="-37.499999" height="449.999989" fill-opacity="1"/><rect x="-37.5" width="450" fill="#ffffff" y="-37.499999" height="449.999989" fill-opacity="1"/><rect x="-37.5" width="450" fill="#ffffff" y="-37.499999" height="449.999989" fill-opacity="1"/><path fill="#ffffff" d="M 56.140625 170.535156 L 318.589844 170.535156 L 318.589844 204.285156 L 56.140625 204.285156 L 56.140625 170.535156 " fill-opacity="1" fill-rule="nonzero"/><g clip-path="url(#id1)"><path fill="#000000" d="M 187.5 148.015625 C 177.261719 148.015625 169.183594 157.003906 169.183594 167.683594 L 162.523438 167.683594 C 155.175781 167.683594 149.203125 173.652344 149.203125 181.003906 L 149.203125 190.992188 C 147.371094 190.992188 145.875 192.488281 145.875 194.324219 C 145.875 196.15625 147.371094 197.652344 149.203125 197.652344 L 225.796875 197.652344 C 227.628906 197.652344 229.125 196.15625 229.125 194.324219 C 229.125 192.488281 227.628906 190.992188 225.796875 190.992188 L 225.796875 181.003906 C 225.796875 173.652344 219.824219 167.683594 212.476562 167.683594 L 205.816406 167.683594 C 205.816406 157.003906 197.738281 148.015625 187.5 148.015625 Z M 187.5 154.675781 C 193.808594 154.675781 199.15625 160.308594 199.15625 167.683594 L 175.84375 167.683594 C 175.84375 160.308594 181.191406 154.675781 187.5 154.675781 Z M 149.203125 204.3125 L 149.203125 220.960938 C 147.371094 220.960938 145.875 222.457031 145.875 224.292969 C 145.875 226.125 147.371094 227.621094 149.203125 227.621094 L 225.796875 227.621094 C 227.628906 227.621094 229.125 226.125 229.125 224.292969 C 229.125 222.457031 227.628906 220.960938 225.796875 220.960938 L 225.796875 204.3125 Z M 149.203125 234.28125 L 149.203125 254.261719 C 147.371094 254.261719 145.875 255.757812 145.875 257.59375 C 145.875 259.425781 147.371094 260.921875 149.203125 260.921875 L 225.796875 260.921875 C 227.628906 260.921875 229.125 259.425781 229.125 257.59375 C 229.125 255.757812 227.628906 254.261719 225.796875 254.261719 L 225.796875 234.28125 Z M 149.203125 267.582031 L 149.203125 284.234375 C 149.203125 291.582031 155.175781 297.550781 162.523438 297.550781 L 212.476562 297.550781 C 219.824219 297.550781 225.796875 291.582031 225.796875 284.234375 L 225.796875 267.582031 Z M 149.203125 267.582031 " fill-opacity="1" fill-rule="nonzero"/></g><g fill="#1f2122" fill-opacity="1"><g transform="translate(97.905453, 134.216242)"><g><path d="M 2.890625 0 L 2.890625 -0.1875 L 3.125 -0.1875 C 4.101562 -0.1875 4.59375 -0.617188 4.59375 -1.484375 L 4.59375 -12.6875 L 3.125 -12.6875 C 2.207031 -12.6875 1.566406 -12.515625 1.203125 -12.171875 C 0.835938 -11.835938 0.628906 -11.21875 0.578125 -10.3125 L 0.546875 -9.71875 L 0.359375 -9.71875 L 0.46875 -12.875 L 10.578125 -12.875 L 10.6875 -9.71875 L 10.515625 -9.71875 L 10.46875 -10.3125 C 10.414062 -11.21875 10.207031 -11.835938 9.84375 -12.171875 C 9.476562 -12.515625 8.84375 -12.6875 7.9375 -12.6875 L 6.421875 -12.6875 L 6.421875 -1.484375 C 6.421875 -0.617188 6.910156 -0.1875 7.890625 -0.1875 L 8.125 -0.1875 L 8.125 0 Z M 2.890625 0 "/></g></g></g><g fill="#1f2122" fill-opacity="1"><g transform="translate(115.717819, 134.216242)"><g><path d="M 0.6875 0 L 0.6875 -0.1875 L 0.921875 -0.1875 C 1.898438 -0.1875 2.390625 -0.617188 2.390625 -1.484375 L 2.390625 -11.46875 C 2.390625 -12.28125 1.898438 -12.6875 0.921875 -12.6875 L 0.6875 -12.6875 L 0.6875 -12.875 L 5.9375 -12.875 L 5.9375 -12.6875 L 5.703125 -12.6875 C 4.710938 -12.6875 4.21875 -12.253906 4.21875 -11.390625 L 4.21875 -1.484375 C 4.21875 -0.617188 4.710938 -0.1875 5.703125 -0.1875 L 5.9375 -0.1875 L 5.9375 0 Z M 0.6875 0 "/></g></g></g><g fill="#1f2122" fill-opacity="1"><g transform="translate(129.096435, 134.216242)"><g><path d="M 0.6875 0 L 0.6875 -0.1875 L 0.921875 -0.1875 C 1.898438 -0.1875 2.390625 -0.617188 2.390625 -1.484375 L 2.390625 -11.46875 C 2.390625 -12.28125 1.898438 -12.6875 0.921875 -12.6875 L 0.6875 -12.6875 L 0.6875 -12.875 L 9.765625 -12.875 L 9.875 -9.71875 L 9.703125 -9.71875 L 9.671875 -10.3125 C 9.617188 -11.21875 9.40625 -11.835938 9.03125 -12.171875 C 8.65625 -12.515625 8.015625 -12.6875 7.109375 -12.6875 L 4.21875 -12.6875 L 4.21875 -6.421875 L 8.75 -6.421875 L 8.75 -6.234375 L 4.21875 -6.234375 L 4.21875 -1.484375 C 4.21875 -0.617188 4.710938 -0.1875 5.703125 -0.1875 L 5.9375 -0.1875 L 5.9375 0 Z M 0.6875 0 "/></g></g></g><g fill="#1f2122" fill-opacity="1"><g transform="translate(146.494261, 134.216242)"><g><path d="M 0.6875 0 L 0.6875 -0.1875 L 0.921875 -0.1875 C 1.898438 -0.1875 2.390625 -0.617188 2.390625 -1.484375 L 2.390625 -11.46875 C 2.390625 -12.28125 1.898438 -12.6875 0.921875 -12.6875 L 0.6875 -12.6875 L 0.6875 -12.875 L 9.765625 -12.875 L 9.875 -9.71875 L 9.703125 -9.71875 L 9.671875 -10.3125 C 9.617188 -11.21875 9.40625 -11.835938 9.03125 -12.171875 C 8.65625 -12.515625 8.015625 -12.6875 7.109375 -12.6875 L 4.21875 -12.6875 L 4.21875 -6.421875 L 8.75 -6.421875 L 8.75 -6.234375 L 4.21875 -6.234375 L 4.21875 -1.484375 C 4.21875 -0.617188 4.710938 -0.1875 5.703125 -0.1875 L 5.9375 -0.1875 L 5.9375 0 Z M 0.6875 0 "/></g></g></g><g fill="#1f2122" fill-opacity="1"><g transform="translate(163.892088, 134.216242)"><g><path d="M 0.6875 0 L 0.6875 -0.1875 L 0.921875 -0.1875 C 1.898438 -0.1875 2.390625 -0.617188 2.390625 -1.484375 L 2.390625 -11.46875 C 2.390625 -12.28125 1.898438 -12.6875 0.921875 -12.6875 L 0.6875 -12.6875 L 0.6875 -12.875 L 5.9375 -12.875 L 5.9375 -12.6875 L 5.703125 -12.6875 C 4.710938 -12.6875 4.21875 -12.253906 4.21875 -11.390625 L 4.21875 -1.484375 C 4.21875 -0.617188 4.710938 -0.1875 5.703125 -0.1875 L 5.9375 -0.1875 L 5.9375 0 Z M 0.6875 0 "/></g></g></g><g fill="#1f2122" fill-opacity="1"><g transform="translate(177.270706, 134.216242)"><g><path d="M 0.6875 0 L 0.6875 -0.1875 L 1.203125 -0.1875 C 2.191406 -0.1875 2.6875 -0.617188 2.6875 -1.484375 L 2.6875 -11.46875 C 2.6875 -12.28125 2.191406 -12.6875 1.203125 -12.6875 L 0.6875 -12.6875 L 0.6875 -12.875 L 4.203125 -12.875 L 11.078125 -2.578125 L 11.078125 -11.390625 C 11.078125 -12.253906 10.582031 -12.6875 9.59375 -12.6875 L 9.09375 -12.6875 L 9.09375 -12.875 L 13.25 -12.875 L 13.25 -12.6875 L 12.734375 -12.6875 C 11.742188 -12.6875 11.25 -12.253906 11.25 -11.390625 L 11.25 0 L 10.703125 0 L 2.859375 -11.75 L 2.859375 -1.484375 C 2.859375 -0.617188 3.351562 -0.1875 4.34375 -0.1875 L 4.84375 -0.1875 L 4.84375 0 Z M 0.6875 0 "/></g></g></g><g fill="#1f2122" fill-opacity="1"><g transform="translate(197.786562, 134.216242)"><g/></g></g><g fill="#1f2122" fill-opacity="1"><g transform="translate(208.605852, 134.216242)"><g><path d="M 0.6875 0 L 0.6875 -0.1875 L 0.921875 -0.1875 C 1.898438 -0.1875 2.390625 -0.617188 2.390625 -1.484375 L 2.390625 -11.46875 C 2.390625 -12.28125 1.898438 -12.6875 0.921875 -12.6875 L 0.6875 -12.6875 L 0.6875 -12.875 L 5.9375 -12.875 L 5.9375 -12.6875 L 5.703125 -12.6875 C 4.710938 -12.6875 4.21875 -12.253906 4.21875 -11.390625 L 4.21875 -5.34375 L 8.8125 -10.546875 C 9.4375 -11.242188 9.75 -11.753906 9.75 -12.078125 C 9.75 -12.472656 9.1875 -12.671875 8.0625 -12.671875 L 8.0625 -12.875 L 12.046875 -12.875 L 12.046875 -12.671875 C 11.640625 -12.671875 11.25 -12.546875 10.875 -12.296875 C 10.5 -12.054688 10.023438 -11.613281 9.453125 -10.96875 L 6.671875 -7.84375 L 10.640625 -2.21875 C 11.191406 -1.4375 11.617188 -0.898438 11.921875 -0.609375 C 12.234375 -0.328125 12.523438 -0.1875 12.796875 -0.1875 L 12.84375 -0.1875 L 12.84375 0 L 12.640625 0 C 12.035156 0 11.535156 -0.0195312 11.140625 -0.0625 C 10.753906 -0.113281 10.4375 -0.195312 10.1875 -0.3125 C 9.9375 -0.4375 9.707031 -0.601562 9.5 -0.8125 C 9.300781 -1.03125 9.085938 -1.300781 8.859375 -1.625 L 5.46875 -6.46875 L 4.21875 -5.046875 L 4.21875 -1.484375 C 4.21875 -0.617188 4.710938 -0.1875 5.703125 -0.1875 L 5.9375 -0.1875 L 5.9375 0 Z M 0.6875 0 "/></g></g></g><g fill="#1f2122" fill-opacity="1"><g transform="translate(227.986237, 134.216242)"><g><path d="M 0 0 L 0 -0.1875 L 0.515625 -0.1875 C 0.898438 -0.1875 1.203125 -0.285156 1.421875 -0.484375 C 1.648438 -0.691406 1.851562 -1.0625 2.03125 -1.59375 L 5.96875 -12.875 L 6.890625 -12.875 L 11.40625 -1.140625 C 11.539062 -0.773438 11.6875 -0.523438 11.84375 -0.390625 C 12 -0.253906 12.210938 -0.1875 12.484375 -0.1875 L 12.71875 -0.1875 L 12.71875 0 L 7.75 0 L 7.75 -0.1875 L 8.171875 -0.1875 C 8.628906 -0.1875 8.957031 -0.238281 9.15625 -0.34375 C 9.363281 -0.445312 9.46875 -0.640625 9.46875 -0.921875 C 9.46875 -1.015625 9.453125 -1.128906 9.421875 -1.265625 C 9.398438 -1.410156 9.359375 -1.5625 9.296875 -1.71875 L 8.203125 -4.671875 L 3.3125 -4.671875 L 2.328125 -1.84375 C 2.210938 -1.53125 2.15625 -1.269531 2.15625 -1.0625 C 2.15625 -0.738281 2.300781 -0.507812 2.59375 -0.375 C 2.882812 -0.25 3.347656 -0.1875 3.984375 -0.1875 L 4.40625 -0.1875 L 4.40625 0 Z M 3.375 -4.84375 L 8.125 -4.84375 L 6.8125 -8.359375 C 6.34375 -9.578125 5.972656 -10.660156 5.703125 -11.609375 C 5.578125 -11.253906 5.46875 -10.9375 5.375 -10.65625 C 5.289062 -10.375 5.195312 -10.082031 5.09375 -9.78125 C 4.988281 -9.476562 4.859375 -9.109375 4.703125 -8.671875 Z M 3.375 -4.84375 "/></g></g></g><g fill="#1f2122" fill-opacity="1"><g transform="translate(247.456744, 134.216242)"><g><path d="M 0.6875 0 L 0.6875 -0.1875 L 0.921875 -0.1875 C 1.898438 -0.1875 2.390625 -0.617188 2.390625 -1.484375 L 2.390625 -11.46875 C 2.390625 -12.28125 1.898438 -12.6875 0.921875 -12.6875 L 0.6875 -12.6875 L 0.6875 -12.875 L 5.53125 -12.875 C 7.09375 -12.875 8.253906 -12.582031 9.015625 -12 C 9.785156 -11.414062 10.171875 -10.582031 10.171875 -9.5 C 10.171875 -8.789062 10.03125 -8.210938 9.75 -7.765625 C 9.46875 -7.328125 9.101562 -6.976562 8.65625 -6.71875 C 8.21875 -6.46875 7.765625 -6.28125 7.296875 -6.15625 L 9.84375 -2.1875 C 10.332031 -1.414062 10.722656 -0.890625 11.015625 -0.609375 C 11.304688 -0.328125 11.59375 -0.1875 11.875 -0.1875 L 11.9375 -0.1875 L 11.9375 0 L 11.6875 0 C 11.125 0 10.65625 -0.0195312 10.28125 -0.0625 C 9.914062 -0.101562 9.613281 -0.175781 9.375 -0.28125 C 9.132812 -0.394531 8.921875 -0.554688 8.734375 -0.765625 C 8.546875 -0.972656 8.34375 -1.25 8.125 -1.59375 L 5.359375 -6 L 4.21875 -6 L 4.21875 -1.484375 C 4.21875 -0.617188 4.710938 -0.1875 5.703125 -0.1875 L 5.9375 -0.1875 L 5.9375 0 Z M 4.21875 -6.1875 L 5.484375 -6.1875 C 6.484375 -6.1875 7.191406 -6.425781 7.609375 -6.90625 C 8.023438 -7.394531 8.234375 -8.21875 8.234375 -9.375 C 8.234375 -10.5625 8.015625 -11.410156 7.578125 -11.921875 C 7.148438 -12.429688 6.441406 -12.6875 5.453125 -12.6875 L 4.21875 -12.6875 Z M 4.21875 -6.1875 "/></g></g></g><g fill="#1f2122" fill-opacity="1"><g transform="translate(266.044111, 134.216242)"><g><path d="M 2.890625 0 L 2.890625 -0.1875 L 3.125 -0.1875 C 4.101562 -0.1875 4.59375 -0.617188 4.59375 -1.484375 L 4.59375 -12.6875 L 3.125 -12.6875 C 2.207031 -12.6875 1.566406 -12.515625 1.203125 -12.171875 C 0.835938 -11.835938 0.628906 -11.21875 0.578125 -10.3125 L 0.546875 -9.71875 L 0.359375 -9.71875 L 0.46875 -12.875 L 10.578125 -12.875 L 10.6875 -9.71875 L 10.515625 -9.71875 L 10.46875 -10.3125 C 10.414062 -11.21875 10.207031 -11.835938 9.84375 -12.171875 C 9.476562 -12.515625 8.84375 -12.6875 7.9375 -12.6875 L 6.421875 -12.6875 L 6.421875 -1.484375 C 6.421875 -0.617188 6.910156 -0.1875 7.890625 -0.1875 L 8.125 -0.1875 L 8.125 0 Z M 2.890625 0 "/></g></g></g></svg>