<svg xmlns="http://www.w3.org/2000/svg" xmlns:xlink="http://www.w3.org/1999/xlink" width="500" zoomAndPan="magnify" viewBox="0 0 375 374.999991" height="500" preserveAspectRatio="xMidYMid meet" version="1.0"><defs><g/><clipPath id="id1"><path d="M 187.5 127.226562 L 254.25 127.226562 L 254.25 247.976562 L 187.5 247.976562 Z M 187.5 127.226562 " clip-rule="nonzero"/></clipPath></defs><rect x="-37.5" width="450" fill="#ffffff" y="-37.499999" height="449.999989" fill-opacity="1"/><rect x="-37.5" width="450" fill="#ffffff" y="-37.499999" height="449.999989" fill-opacity="1"/><rect x="-37.5" width="450" fill="#ffffff" y="-37.499999" height="449.999989" fill-opacity="1"/><rect x="-37.5" width="450" fill="#ffffff" y="-37.499999" height="449.999989" fill-opacity="1"/><path fill="#ffffff" d="M 56.140625 170.535156 L 318.589844 170.535156 L 318.589844 204.285156 L 56.140625 204.285156 L 56.140625 170.535156 " fill-opacity="1" fill-rule="nonzero"/><g clip-path="url(#id1)"><path fill="#000000" d="M 220.875 127.402344 C 212.667969 127.402344 206.191406 134.636719 206.191406 143.234375 L 200.851562 143.234375 C 194.957031 143.234375 190.171875 148.042969 190.171875 153.957031 L 190.171875 162 C 188.699219 162 187.5 163.203125 187.5 164.679688 C 187.5 166.15625 188.699219 167.363281 190.171875 167.363281 L 251.578125 167.363281 C 253.050781 167.363281 254.25 166.15625 254.25 164.679688 C 254.25 163.203125 253.050781 162 251.578125 162 L 251.578125 153.957031 C 251.578125 148.042969 246.792969 143.234375 240.898438 143.234375 L 235.558594 143.234375 C 235.558594 134.636719 229.082031 127.402344 220.875 127.402344 Z M 220.875 132.761719 C 225.933594 132.761719 230.21875 137.296875 230.21875 143.234375 L 211.53125 143.234375 C 211.53125 137.296875 215.816406 132.761719 220.875 132.761719 Z M 190.171875 172.722656 L 190.171875 186.128906 C 188.699219 186.128906 187.5 187.332031 187.5 188.808594 C 187.5 190.285156 188.699219 191.488281 190.171875 191.488281 L 251.578125 191.488281 C 253.050781 191.488281 254.25 190.285156 254.25 188.808594 C 254.25 187.332031 253.050781 186.128906 251.578125 186.128906 L 251.578125 172.722656 Z M 190.171875 196.851562 L 190.171875 212.933594 C 188.699219 212.933594 187.5 214.140625 187.5 215.617188 C 187.5 217.09375 188.699219 218.296875 190.171875 218.296875 L 251.578125 218.296875 C 253.050781 218.296875 254.25 217.09375 254.25 215.617188 C 254.25 214.140625 253.050781 212.933594 251.578125 212.933594 L 251.578125 196.851562 Z M 190.171875 223.660156 L 190.171875 237.0625 C 190.171875 242.980469 194.957031 247.785156 200.851562 247.785156 L 240.898438 247.785156 C 246.792969 247.785156 251.578125 242.980469 251.578125 237.0625 L 251.578125 223.660156 Z M 190.171875 223.660156 " fill-opacity="1" fill-rule="nonzero"/></g><g fill="#1f2122" fill-opacity="1"><g transform="translate(79.14016, 188.879899)"><g><path d="M 3.046875 0 L 3.046875 -0.1875 L 3.296875 -0.1875 C 4.335938 -0.1875 4.859375 -0.644531 4.859375 -1.5625 L 4.859375 -13.390625 L 3.296875 -13.390625 C 2.328125 -13.390625 1.648438 -13.207031 1.265625 -12.84375 C 0.878906 -12.488281 0.660156 -11.835938 0.609375 -10.890625 L 0.578125 -10.265625 L 0.375 -10.265625 L 0.5 -13.59375 L 11.171875 -13.59375 L 11.28125 -10.265625 L 11.09375 -10.265625 L 11.0625 -10.890625 C 11 -11.835938 10.773438 -12.488281 10.390625 -12.84375 C 10.003906 -13.207031 9.332031 -13.390625 8.375 -13.390625 L 6.78125 -13.390625 L 6.78125 -1.5625 C 6.78125 -0.644531 7.296875 -0.1875 8.328125 -0.1875 L 8.578125 -0.1875 L 8.578125 0 Z M 3.046875 0 "/></g></g></g><g fill="#1f2122" fill-opacity="1"><g transform="translate(97.945291, 188.879899)"><g><path d="M 0.71875 0 L 0.71875 -0.1875 L 0.96875 -0.1875 C 2.007812 -0.1875 2.53125 -0.644531 2.53125 -1.5625 L 2.53125 -12.109375 C 2.53125 -12.960938 2.007812 -13.390625 0.96875 -13.390625 L 0.71875 -13.390625 L 0.71875 -13.59375 L 6.265625 -13.59375 L 6.265625 -13.390625 L 6.015625 -13.390625 C 4.972656 -13.390625 4.453125 -12.9375 4.453125 -12.03125 L 4.453125 -1.5625 C 4.453125 -0.644531 4.972656 -0.1875 6.015625 -0.1875 L 6.265625 -0.1875 L 6.265625 0 Z M 0.71875 0 "/></g></g></g><g fill="#1f2122" fill-opacity="1"><g transform="translate(112.068758, 188.879899)"><g><path d="M 0.71875 0 L 0.71875 -0.1875 L 0.96875 -0.1875 C 2.007812 -0.1875 2.53125 -0.644531 2.53125 -1.5625 L 2.53125 -12.109375 C 2.53125 -12.960938 2.007812 -13.390625 0.96875 -13.390625 L 0.71875 -13.390625 L 0.71875 -13.59375 L 10.3125 -13.59375 L 10.421875 -10.265625 L 10.234375 -10.265625 L 10.203125 -10.890625 C 10.148438 -11.835938 9.925781 -12.488281 9.53125 -12.84375 C 9.132812 -13.207031 8.457031 -13.390625 7.5 -13.390625 L 4.453125 -13.390625 L 4.453125 -6.78125 L 9.234375 -6.78125 L 9.234375 -6.578125 L 4.453125 -6.578125 L 4.453125 -1.5625 C 4.453125 -0.644531 4.972656 -0.1875 6.015625 -0.1875 L 6.265625 -0.1875 L 6.265625 0 Z M 0.71875 0 "/></g></g></g><g fill="#1f2122" fill-opacity="1"><g transform="translate(130.436175, 188.879899)"><g><path d="M 0.71875 0 L 0.71875 -0.1875 L 0.96875 -0.1875 C 2.007812 -0.1875 2.53125 -0.644531 2.53125 -1.5625 L 2.53125 -12.109375 C 2.53125 -12.960938 2.007812 -13.390625 0.96875 -13.390625 L 0.71875 -13.390625 L 0.71875 -13.59375 L 10.3125 -13.59375 L 10.421875 -10.265625 L 10.234375 -10.265625 L 10.203125 -10.890625 C 10.148438 -11.835938 9.925781 -12.488281 9.53125 -12.84375 C 9.132812 -13.207031 8.457031 -13.390625 7.5 -13.390625 L 4.453125 -13.390625 L 4.453125 -6.78125 L 9.234375 -6.78125 L 9.234375 -6.578125 L 4.453125 -6.578125 L 4.453125 -1.5625 C 4.453125 -0.644531 4.972656 -0.1875 6.015625 -0.1875 L 6.265625 -0.1875 L 6.265625 0 Z M 0.71875 0 "/></g></g></g><g fill="#1f2122" fill-opacity="1"><g transform="translate(148.803592, 188.879899)"><g><path d="M 0.71875 0 L 0.71875 -0.1875 L 0.96875 -0.1875 C 2.007812 -0.1875 2.53125 -0.644531 2.53125 -1.5625 L 2.53125 -12.109375 C 2.53125 -12.960938 2.007812 -13.390625 0.96875 -13.390625 L 0.71875 -13.390625 L 0.71875 -13.59375 L 6.265625 -13.59375 L 6.265625 -13.390625 L 6.015625 -13.390625 C 4.972656 -13.390625 4.453125 -12.9375 4.453125 -12.03125 L 4.453125 -1.5625 C 4.453125 -0.644531 4.972656 -0.1875 6.015625 -0.1875 L 6.265625 -0.1875 L 6.265625 0 Z M 0.71875 0 "/></g></g></g><g fill="#1f2122" fill-opacity="1"><g transform="translate(162.927059, 188.879899)"><g><path d="M 0.71875 0 L 0.71875 -0.1875 L 1.28125 -0.1875 C 2.3125 -0.1875 2.828125 -0.644531 2.828125 -1.5625 L 2.828125 -12.109375 C 2.828125 -12.960938 2.3125 -13.390625 1.28125 -13.390625 L 0.71875 -13.390625 L 0.71875 -13.59375 L 4.4375 -13.59375 L 11.6875 -2.71875 L 11.6875 -12.03125 C 11.6875 -12.9375 11.164062 -13.390625 10.125 -13.390625 L 9.59375 -13.390625 L 9.59375 -13.59375 L 13.984375 -13.59375 L 13.984375 -13.390625 L 13.4375 -13.390625 C 12.394531 -13.390625 11.875 -12.9375 11.875 -12.03125 L 11.875 0 L 11.296875 0 L 3.03125 -12.40625 L 3.03125 -1.5625 C 3.03125 -0.644531 3.550781 -0.1875 4.59375 -0.1875 L 5.125 -0.1875 L 5.125 0 Z M 0.71875 0 "/></g></g></g><g fill="#1f2122" fill-opacity="1"><g transform="translate(184.585466, 188.879899)"><g/></g></g><g fill="#1f2122" fill-opacity="1"><g transform="translate(105.159732, 222.812577)"><g><path d="M 0.71875 0 L 0.71875 -0.1875 L 0.96875 -0.1875 C 2.007812 -0.1875 2.53125 -0.644531 2.53125 -1.5625 L 2.53125 -12.109375 C 2.53125 -12.960938 2.007812 -13.390625 0.96875 -13.390625 L 0.71875 -13.390625 L 0.71875 -13.59375 L 6.265625 -13.59375 L 6.265625 -13.390625 L 6.015625 -13.390625 C 4.972656 -13.390625 4.453125 -12.9375 4.453125 -12.03125 L 4.453125 -5.640625 L 9.3125 -11.140625 C 9.96875 -11.867188 10.296875 -12.40625 10.296875 -12.75 C 10.296875 -13.164062 9.695312 -13.375 8.5 -13.375 L 8.5 -13.59375 L 12.71875 -13.59375 L 12.71875 -13.375 C 12.28125 -13.375 11.863281 -13.242188 11.46875 -12.984375 C 11.082031 -12.722656 10.582031 -12.253906 9.96875 -11.578125 L 7.046875 -8.28125 L 11.234375 -2.34375 C 11.816406 -1.519531 12.269531 -0.953125 12.59375 -0.640625 C 12.914062 -0.335938 13.222656 -0.1875 13.515625 -0.1875 L 13.546875 -0.1875 L 13.546875 0 L 13.34375 0 C 12.707031 0 12.179688 -0.0234375 11.765625 -0.078125 C 11.359375 -0.128906 11.019531 -0.21875 10.75 -0.34375 C 10.488281 -0.46875 10.25 -0.640625 10.03125 -0.859375 C 9.8125 -1.085938 9.582031 -1.375 9.34375 -1.71875 L 5.765625 -6.828125 L 4.453125 -5.328125 L 4.453125 -1.5625 C 4.453125 -0.644531 4.972656 -0.1875 6.015625 -0.1875 L 6.265625 -0.1875 L 6.265625 0 Z M 0.71875 0 "/></g></g></g><g fill="#1f2122" fill-opacity="1"><g transform="translate(125.620571, 222.812577)"><g><path d="M 0 0 L 0 -0.1875 L 0.546875 -0.1875 C 0.953125 -0.1875 1.269531 -0.296875 1.5 -0.515625 C 1.738281 -0.734375 1.957031 -1.117188 2.15625 -1.671875 L 6.296875 -13.59375 L 7.265625 -13.59375 L 12.046875 -1.203125 C 12.179688 -0.816406 12.332031 -0.550781 12.5 -0.40625 C 12.664062 -0.257812 12.890625 -0.1875 13.171875 -0.1875 L 13.421875 -0.1875 L 13.421875 0 L 8.1875 0 L 8.1875 -0.1875 L 8.625 -0.1875 C 9.101562 -0.1875 9.445312 -0.242188 9.65625 -0.359375 C 9.875 -0.472656 9.984375 -0.675781 9.984375 -0.96875 C 9.984375 -1.070312 9.972656 -1.195312 9.953125 -1.34375 C 9.929688 -1.488281 9.882812 -1.644531 9.8125 -1.8125 L 8.65625 -4.921875 L 3.5 -4.921875 L 2.453125 -1.9375 C 2.335938 -1.613281 2.28125 -1.34375 2.28125 -1.125 C 2.28125 -0.78125 2.429688 -0.535156 2.734375 -0.390625 C 3.046875 -0.253906 3.535156 -0.1875 4.203125 -0.1875 L 4.640625 -0.1875 L 4.640625 0 Z M 3.5625 -5.125 L 8.578125 -5.125 L 7.1875 -8.828125 C 6.695312 -10.109375 6.304688 -11.25 6.015625 -12.25 C 5.890625 -11.875 5.773438 -11.539062 5.671875 -11.25 C 5.578125 -10.957031 5.476562 -10.648438 5.375 -10.328125 C 5.269531 -10.003906 5.132812 -9.613281 4.96875 -9.15625 Z M 3.5625 -5.125 "/></g></g></g><g fill="#1f2122" fill-opacity="1"><g transform="translate(146.176567, 222.812577)"><g><path d="M 0.71875 0 L 0.71875 -0.1875 L 0.96875 -0.1875 C 2.007812 -0.1875 2.53125 -0.644531 2.53125 -1.5625 L 2.53125 -12.109375 C 2.53125 -12.960938 2.007812 -13.390625 0.96875 -13.390625 L 0.71875 -13.390625 L 0.71875 -13.59375 L 5.84375 -13.59375 C 7.488281 -13.59375 8.710938 -13.285156 9.515625 -12.671875 C 10.328125 -12.054688 10.734375 -11.175781 10.734375 -10.03125 C 10.734375 -9.28125 10.582031 -8.671875 10.28125 -8.203125 C 9.988281 -7.734375 9.609375 -7.363281 9.140625 -7.09375 C 8.679688 -6.832031 8.203125 -6.628906 7.703125 -6.484375 L 10.390625 -2.296875 C 10.910156 -1.484375 11.320312 -0.925781 11.625 -0.625 C 11.925781 -0.332031 12.234375 -0.1875 12.546875 -0.1875 L 12.59375 -0.1875 L 12.59375 0 L 12.328125 0 C 11.734375 0 11.242188 -0.0195312 10.859375 -0.0625 C 10.472656 -0.113281 10.148438 -0.191406 9.890625 -0.296875 C 9.640625 -0.410156 9.414062 -0.578125 9.21875 -0.796875 C 9.019531 -1.023438 8.804688 -1.316406 8.578125 -1.671875 L 5.65625 -6.34375 L 4.453125 -6.34375 L 4.453125 -1.5625 C 4.453125 -0.644531 4.972656 -0.1875 6.015625 -0.1875 L 6.265625 -0.1875 L 6.265625 0 Z M 4.453125 -6.53125 L 5.78125 -6.53125 C 6.832031 -6.53125 7.582031 -6.785156 8.03125 -7.296875 C 8.476562 -7.804688 8.703125 -8.671875 8.703125 -9.890625 C 8.703125 -11.148438 8.472656 -12.046875 8.015625 -12.578125 C 7.554688 -13.117188 6.800781 -13.390625 5.75 -13.390625 L 4.453125 -13.390625 Z M 4.453125 -6.53125 "/></g></g></g><g fill="#1f2122" fill-opacity="1"><g transform="translate(165.800042, 222.812577)"><g><path d="M 3.046875 0 L 3.046875 -0.1875 L 3.296875 -0.1875 C 4.335938 -0.1875 4.859375 -0.644531 4.859375 -1.5625 L 4.859375 -13.390625 L 3.296875 -13.390625 C 2.328125 -13.390625 1.648438 -13.207031 1.265625 -12.84375 C 0.878906 -12.488281 0.660156 -11.835938 0.609375 -10.890625 L 0.578125 -10.265625 L 0.375 -10.265625 L 0.5 -13.59375 L 11.171875 -13.59375 L 11.28125 -10.265625 L 11.09375 -10.265625 L 11.0625 -10.890625 C 11 -11.835938 10.773438 -12.488281 10.390625 -12.84375 C 10.003906 -13.207031 9.332031 -13.390625 8.375 -13.390625 L 6.78125 -13.390625 L 6.78125 -1.5625 C 6.78125 -0.644531 7.296875 -0.1875 8.328125 -0.1875 L 8.578125 -0.1875 L 8.578125 0 Z M 3.046875 0 "/></g></g></g></svg>